<svg xmlns="http://www.w3.org/2000/svg" width="35" height="40" viewBox="0 0 35 40" fill="none">
  <path fill-rule="evenodd" clip-rule="evenodd" d="M34.2127 9.87631V10.9533L26.5574 15.3411V24.1642L34.2127 28.5519V29.629L24.7547 35.0896L17.1063 30.7058L9.45794 35.0896L0 29.629V28.5519L7.65533 24.1642V15.3411L0 10.9533V9.87631L9.45822 4.41558L17.1063 8.79923L24.7544 4.41558L34.2127 9.87631ZM9.45102 15.341V24.1641L17.1063 28.5519L24.7617 24.1641V15.341L17.1063 10.9532L9.45102 15.341Z" fill="#FFBA3B"/>
  <path d="M17.1064 39.5053L20.9813 37.2843L17.1064 35.0633L13.2314 37.2843L17.1064 39.5053Z" fill="white"/>
  <path d="M0 15.3107L3.87492 17.5316V21.9736L0 24.1946V15.3107Z" fill="white"/>
  <path d="M34.2126 15.3107V24.1946L30.3376 21.9736V17.5316L34.2126 15.3107Z" fill="white"/>
  <path d="M17.1064 4.44198L20.9813 2.22099L17.1064 0L13.2314 2.22099L17.1064 4.44198Z" fill="white"/>
  <path d="M17.1064 15.3107L20.9813 17.5316V21.9736L17.1064 24.1946L13.2314 21.9736V17.5316L17.1064 15.3107Z" fill="white"/>
</svg>
