<svg width="40" height="40" viewBox="0 0 40 40" fill="none" xmlns="http://www.w3.org/2000/svg">
<circle cx="20" cy="20" r="16" fill="#D02929"/>
<path d="M14.5 17C15.3284 17 16 17.6716 16 18.5C16 19.3284 15.3284 20 14.5 20C13.6716 20 13 19.3284 13 18.5C13 17.6716 13.6716 17 14.5 17Z" fill="#121B2B" stroke="#121B2B"/>
<path d="M25.5 17C26.3284 17 27 17.6716 27 18.5C27 19.3284 26.3284 20 25.5 20C24.6716 20 24 19.3284 24 18.5C24 17.6716 24.6716 17 25.5 17Z" fill="#121B2B" stroke="#121B2B"/>
<path d="M10.0664 13.6406C10.2648 13.1253 10.844 12.8682 11.3594 13.0664L17.8594 15.5664C18.3747 15.7648 18.6318 16.344 18.4336 16.8594C18.2353 17.3747 17.656 17.6318 17.1406 17.4336L10.6406 14.9336C10.1253 14.7353 9.8682 14.156 10.0664 13.6406Z" fill="#121B2B"/>
<path d="M28.6406 13.0664C29.156 12.8682 29.7353 13.1253 29.9336 13.6406C30.1318 14.156 29.8747 14.7353 29.3594 14.9336L22.8594 17.4336C22.344 17.6318 21.7648 17.3747 21.5664 16.8594C21.3682 16.344 21.6253 15.7648 22.1406 15.5664L28.6406 13.0664Z" fill="#121B2B"/>
<path d="M19.9999 24C21.9508 24 23.8314 24.784 25.6249 26.2188C26.0562 26.5638 26.1262 27.1937 25.7811 27.625C25.4361 28.0563 24.8062 28.1263 24.3749 27.7812C22.835 26.5494 21.3823 26 19.9999 26C18.6175 26 17.1648 26.5494 15.6249 27.7812C15.1936 28.1263 14.5637 28.0563 14.2186 27.625C13.8736 27.1937 13.9436 26.5638 14.3749 26.2188C16.1684 24.784 18.049 24 19.9999 24Z" fill="#121B2B"/>
</svg>
