<svg width="40" height="40" viewBox="0 0 40 40" fill="none" xmlns="http://www.w3.org/2000/svg">
<circle cx="20" cy="20" r="16" fill="#FFBA3B"/>
<path d="M15.9713 13.6166C15.9713 14.3807 14.4107 15 12.4857 15C10.5606 15 9 14.3807 9 13.6166C9 12.8526 10.1619 12.685 12.4857 12.2333C16.5523 11.4428 15.9713 12.8526 15.9713 13.6166Z" fill="#121B2B"/>
<path d="M24.0287 13.6166C24.0287 14.3807 25.5893 15 27.5143 15C29.4394 15 31 14.3807 31 13.6166C31 12.8526 29.8381 12.685 27.5143 12.2333C23.4477 11.4428 24.0287 12.8526 24.0287 13.6166Z" fill="#121B2B"/>
<rect x="17" y="21" width="6" height="11" rx="3" fill="#121B2B"/>
<path d="M10 14.88C10 14.394 10.394 14 10.88 14H14.12C14.606 14 15 14.394 15 14.88V33.5C15 34.8807 13.8807 36 12.5 36V36C11.1193 36 10 34.8807 10 33.5V14.88Z" fill="#307DDA"/>
<path d="M25 14.88C25 14.394 25.394 14 25.88 14H29.12C29.606 14 30 14.394 30 14.88V33.5C30 34.8807 28.8807 36 27.5 36V36C26.1193 36 25 34.8807 25 33.5V14.88Z" fill="#307DDA"/>
</svg>
