<svg width="40" height="40" viewBox="0 0 40 40" fill="none" xmlns="http://www.w3.org/2000/svg">
<circle cx="20" cy="20" r="16" fill="#FFBA3B"/>
<path d="M16.9713 16.8499C16.9713 19.142 15.4107 21 13.4857 21C11.5606 21 10 19.142 10 16.8499C10 14.5579 11.1619 14.055 13.4857 12.6999C17.5523 10.3284 16.9713 14.5579 16.9713 16.8499Z" fill="white"/>
<path d="M23.0287 16.8499C23.0287 19.142 24.5893 21 26.5143 21C28.4394 21 30 19.142 30 16.8499C30 14.5579 28.8381 14.055 26.5143 12.6999C22.4477 10.3284 23.0287 14.5579 23.0287 16.8499Z" fill="white"/>
<rect x="17" y="21" width="6" height="11" rx="3" fill="#121B2B"/>
</svg>
