<svg width="40" height="40" viewBox="0 0 40 40" fill="none" xmlns="http://www.w3.org/2000/svg">
<g clip-path="url(#clip0_104_281)">
<circle cx="20" cy="20" r="16" fill="#FFBA3B"/>
<path d="M28 26.2219C23.6362 32.9307 15.5563 32.8463 12 26.2219C18.1036 27.5536 21.6035 27.5848 28 26.2219Z" fill="#121B2B"/>
<path d="M7.42742 6.17861C7.47812 5.21122 8.73712 4.87387 9.26472 5.68631L11.9402 9.80613C12.1761 10.1695 12.6192 10.3395 13.0377 10.2274L17.7826 8.95602C18.7183 8.70529 19.4282 9.79842 18.8186 10.5513L15.7271 14.3689C15.4545 14.7055 15.4297 15.1795 15.6656 15.5428L18.3411 19.6626C18.8687 20.4751 18.0484 21.488 17.144 21.1409L12.558 19.3804C12.1535 19.2252 11.6951 19.348 11.4224 19.6847L8.33102 23.5023C7.72139 24.2551 6.50455 23.788 6.55525 22.8206L6.81234 17.915C6.83501 17.4824 6.57653 17.0844 6.17208 16.9291L1.58603 15.1687C0.681648 14.8215 0.749865 13.5199 1.68558 13.2692L6.43052 11.9978C6.84898 11.8857 7.14766 11.5168 7.17033 11.0842L7.42742 6.17861Z" fill="#FFE588"/>
<path d="M6.42884 6.12601C6.53043 4.1914 9.04848 3.51683 10.1036 5.14164L12.7794 9.26175L17.5236 7.99027C19.395 7.48882 20.8151 9.67502 19.5958 11.1807L16.504 14.9981L19.1798 19.1182C20.2348 20.7431 18.594 22.7685 16.7853 22.0743L12.1993 20.3135L9.10853 24.1319C7.8893 25.6374 5.45566 24.7031 5.55677 22.7686L5.8136 17.8623L1.22767 16.1026C-0.581098 15.4083 -0.444538 12.8042 1.42689 12.3028L6.172 11.0323L6.42884 6.12601ZM9.26478 5.68656C8.73717 4.87412 7.47856 5.21135 7.42786 6.17875L7.17005 11.084C7.14738 11.5166 6.84923 11.8859 6.43079 11.9981L1.68568 13.2696L1.52064 13.3282C0.745354 13.679 0.738174 14.8435 1.58607 15.169L6.172 16.9287C6.57645 17.084 6.8353 17.4824 6.81263 17.9151L6.55579 22.8203L6.56068 22.9961C6.6487 23.7853 7.61672 24.1568 8.21009 23.6289L8.33118 23.502L11.423 19.6846C11.6956 19.3481 12.1534 19.2258 12.5577 19.3809L17.1437 21.1407C18.0481 21.4878 18.8686 20.4746 18.3409 19.6621L15.6661 15.543C15.4597 15.2251 15.4526 14.8223 15.6368 14.501L15.7277 14.3692L18.8185 10.5508C19.4279 9.79798 18.718 8.70538 17.7824 8.95609L13.0382 10.2276L12.88 10.2569C12.5643 10.289 12.2513 10.1679 12.0382 9.93265L11.9406 9.8057L9.26478 5.68656Z" fill="white"/>
<path d="M30.1232 5.6864C30.6508 4.87396 31.9098 5.21131 31.9605 6.17871L32.2176 11.0846C32.2403 11.5172 32.539 11.886 32.9574 11.9982L37.7026 13.2696C38.6383 13.5204 38.7066 14.822 37.8022 15.1691L33.2159 16.9297C32.8114 17.0849 32.5529 17.483 32.5756 17.9156L32.8327 22.8215C32.8834 23.7889 31.6666 24.256 31.0569 23.5031L27.9653 19.6853C27.6927 19.3486 27.2343 19.2258 26.8298 19.381L22.2435 21.1416C21.3391 21.4887 20.5189 20.4758 21.0465 19.6633L23.7221 15.5433C23.958 15.18 23.9332 14.706 23.6605 14.3693L20.5689 10.5515C19.9593 9.79868 20.6692 8.70555 21.6049 8.95627L26.3501 10.2277C26.7686 10.3399 27.2117 10.1698 27.4476 9.80646L30.1232 5.6864Z" fill="#FFE588"/>
<path d="M29.2839 5.14175C30.3391 3.51695 32.8571 4.19153 32.9587 6.12613L33.2156 11.0324L37.9617 12.3039C39.8326 12.8056 39.9685 15.4084 38.1599 16.1027L33.574 17.8634L33.8308 22.7687C33.9322 24.7035 31.4993 25.6377 30.28 24.132L27.1882 20.3146L22.6013 22.0753C20.7927 22.7693 19.1526 20.7431 20.2077 19.1183L22.8835 14.9982L19.7917 11.1808C18.5725 9.67525 19.9918 7.48936 21.863 7.99039L26.6091 9.26187L29.2839 5.14175ZM31.9607 6.17886C31.91 5.21147 30.6504 4.87424 30.1228 5.68668L27.447 9.80679L27.3493 9.93375C27.1363 10.1688 26.8231 10.2892 26.5076 10.257L26.3503 10.2277L21.6042 8.95621C20.6687 8.70591 19.9595 9.79918 20.5691 10.5519L23.6599 14.3693C23.9325 14.706 23.9574 15.1798 23.7214 15.5431L21.0466 19.6632L20.9626 19.8175C20.6441 20.545 21.2972 21.3518 22.0749 21.1916L22.2429 21.1418L26.8298 19.381C27.2342 19.2259 27.693 19.3491 27.9656 19.6857L31.0564 23.5031C31.6278 24.2088 32.7334 23.8426 32.8279 22.9972L32.8327 22.8214L32.5749 17.9152C32.5553 17.5369 32.7511 17.1852 33.071 16.9992L33.2156 16.9298L37.8015 15.1691C38.6493 14.8437 38.6429 13.6792 37.8679 13.3283L37.7019 13.2697L32.9568 11.9982C32.5907 11.9 32.316 11.6053 32.238 11.2433L32.2175 11.0841L31.9607 6.17886Z" fill="white"/>
</g>
<defs>
<clipPath id="clip0_104_281">
<rect width="40" height="40" fill="white"/>
</clipPath>
</defs>
</svg>
