<svg width="40" height="40" viewBox="0 0 40 40" fill="none" xmlns="http://www.w3.org/2000/svg">
<circle cx="20" cy="20" r="16" fill="#FFBA3B"/>
<rect x="17" y="21" width="6" height="11" rx="3" fill="#121B2B"/>
<path d="M26.001 16C26.8294 16 27.501 16.6716 27.501 17.5C27.501 18.3284 26.8294 19 26.001 19C25.1725 19 24.501 18.3284 24.501 17.5C24.501 16.6716 25.1725 16 26.001 16Z" fill="#121B2B" stroke="#121B2B"/>
<path d="M21.5674 11.6406C21.7658 11.1253 22.345 10.8682 22.8604 11.0664L29.3604 13.5664C29.8757 13.7648 30.1328 14.344 29.9346 14.8594C29.7362 15.3747 29.157 15.6318 28.6416 15.4336L22.1416 12.9336C21.6263 12.7353 21.3692 12.156 21.5674 11.6406Z" fill="#121B2B"/>
<path d="M14 16C14.8284 16 15.5 16.6716 15.5 17.5C15.5 18.3284 14.8284 19 14 19C13.1716 19 12.5 18.3284 12.5 17.5C12.5 16.6716 13.1716 16 14 16Z" fill="#121B2B" stroke="#121B2B"/>
<path d="M17.1406 11.0664C17.656 10.8682 18.2353 11.1253 18.4336 11.6406C18.6318 12.156 18.3747 12.7353 17.8594 12.9336L11.3594 15.4336C10.844 15.6318 10.2648 15.3747 10.0664 14.8594C9.8682 14.344 10.1253 13.7648 10.6406 13.5664L17.1406 11.0664Z" fill="#121B2B"/>
</svg>
