<svg width="40" height="40" viewBox="0 0 40 40" fill="none" xmlns="http://www.w3.org/2000/svg">
<circle cx="20" cy="20" r="16" fill="#FFBA3B"/>
<path d="M15.0839 14C15.9437 14.0072 16.5753 14.5827 16.9872 15.2051C17.4116 15.8462 17.7392 16.7249 17.9755 17.7813C18.096 18.3201 17.7574 18.8548 17.2187 18.9756C16.6799 19.0961 16.1451 18.7574 16.0243 18.2188C15.8162 17.288 15.5577 16.6689 15.3193 16.3086C15.1982 16.1257 15.1099 16.0478 15.0634 16.0156C15.0126 16.0474 14.9133 16.1284 14.7734 16.3242C14.5121 16.69 14.2209 17.3167 13.9648 18.2617C13.8202 18.7947 13.2712 19.1093 12.7382 18.9648C12.2053 18.8203 11.8906 18.2713 12.0351 17.7383C12.3244 16.671 12.6944 15.7938 13.1464 15.1611C13.5835 14.5495 14.2312 13.9929 15.0839 14Z" fill="#121B2B"/>
<path d="M19.8076 29C17.5479 28.9924 15.4057 27.775 14.127 25.4883C13.8574 25.0063 14.0297 24.3965 14.5117 24.1269C14.9938 23.8574 15.6035 24.0297 15.8731 24.5117C16.817 26.1996 18.3118 26.9949 19.8145 27C21.3266 27.005 22.9739 26.2073 24.1719 24.4394C24.4816 23.9824 25.1034 23.8624 25.5606 24.1719C26.0177 24.4816 26.1376 25.1034 25.8281 25.5605C24.2989 27.8175 22.0577 29.0075 19.8076 29Z" fill="#121B2B"/>
<path d="M25.0839 14C25.9437 14.0072 26.5753 14.5827 26.9872 15.2051C27.4116 15.8462 27.7392 16.7249 27.9755 17.7813C28.096 18.3201 27.7574 18.8548 27.2187 18.9756C26.6799 19.0961 26.1451 18.7574 26.0243 18.2188C25.8162 17.288 25.5577 16.6689 25.3193 16.3086C25.1982 16.1257 25.1099 16.0478 25.0634 16.0156C25.0126 16.0474 24.9133 16.1284 24.7734 16.3242C24.5121 16.69 24.2209 17.3167 23.9648 18.2617C23.8202 18.7947 23.2712 19.1093 22.7382 18.9648C22.2053 18.8203 21.8906 18.2713 22.0351 17.7383C22.3244 16.671 22.6944 15.7938 23.1464 15.1611C23.5835 14.5495 24.2312 13.9929 25.0839 14Z" fill="#121B2B"/>
</svg>
